<svg version="1.2" baseProfile="tiny-ps" xmlns="http://www.w3.org/2000/svg" viewBox="0 0 386 162" width="386" height="162">
	<title>Logo_SARC-svg</title>
	<style>
		tspan { white-space:pre }
		.shp0 { fill: #264182 } 
		.shp1 { fill: #6f7071 } 
	</style>
	<g id="Layer">
		<path id="Layer" class="shp0" d="M28.9 59.6L33.3 59.6C33.5 62.7 34.8 64.2 37.2 64.2C38.4 64.2 39.3 63.8 40 63.1C40.7 62.4 41 61.4 41 60.2C41 59.8 41 59.5 40.9 59.2C40.8 58.9 40.7 58.6 40.5 58.4C40.4 58.2 40.1 57.9 39.9 57.7C39.6 57.5 39.4 57.3 39.2 57.2C39 57.1 38.7 56.9 38.3 56.7C37.9 56.5 37.6 56.4 37.3 56.3C37.1 56.2 36.7 56.1 36.2 55.9C35.7 55.7 35.4 55.6 35.2 55.5C34.4 55.2 33.7 54.8 33.1 54.5C32.5 54.2 32 53.8 31.3 53.2C30.6 52.7 30.1 52 29.8 51.1C29.5 50.3 29.3 49.3 29.3 48.2C29.3 45.7 30 43.8 31.4 42.4C32.8 41 34.7 40.2 37 40.2C41.6 40.2 44.3 42.6 45 47.5L40.8 47.5C40.7 46.4 40.4 45.6 39.8 44.9C39.2 44.2 38.4 43.9 37.3 43.9C36.3 43.9 35.4 44.2 34.8 44.9C34.2 45.6 33.9 46.4 33.9 47.5C33.9 47.9 33.9 48.3 34 48.6C34.1 48.9 34.3 49.2 34.5 49.5C34.8 49.8 35 50 35.2 50.2C35.4 50.4 35.7 50.6 36.2 50.8C36.7 51 37 51.2 37.2 51.2C37.4 51.3 37.8 51.4 38.5 51.7C39.1 51.9 39.6 52.1 39.8 52.2C40.6 52.5 41.3 52.8 41.8 53.1C42.4 53.4 43 53.9 43.6 54.5C44.2 55.1 44.7 55.8 45.1 56.8C45.5 57.7 45.6 58.8 45.6 60C45.6 62.4 44.8 64.3 43.2 65.8C41.6 67.3 39.6 68 37.2 68C34.5 68 32.5 67.3 31.1 65.8C29.7 64.5 29 62.4 28.9 59.6Z" />
		<path id="Layer" class="shp0" d="M49.5 44.8L49.5 41L53.4 41L53.4 44.9L49.5 44.9L49.5 44.8ZM49.5 67.6L49.5 47.5L53.4 47.5L53.4 67.6L49.5 67.6L49.5 67.6Z" />
		<path id="Layer" class="shp0" d="M69.8 53.2L65.9 53.2C65.9 51.4 65 50.5 63.3 50.5C62.7 50.5 62.1 50.7 61.7 51.1C61.3 51.5 61.1 52 61.1 52.6C61.1 52.9 61.1 53.1 61.2 53.3C61.3 53.5 61.4 53.7 61.6 53.9C61.8 54.1 62 54.2 62.1 54.3C62.2 54.4 62.5 54.5 62.8 54.7C63.2 54.8 63.4 54.9 63.6 55C63.8 55.1 64.1 55.2 64.6 55.3C65.1 55.4 65.4 55.5 65.6 55.6C67 56.1 68.1 56.7 69 57.6C69.9 58.5 70.3 59.9 70.3 61.7C70.3 63.5 69.7 65.1 68.4 66.3C67.1 67.5 65.5 68.1 63.6 68.1C61.6 68.1 60 67.5 58.8 66.4C57.6 65.3 56.8 63.6 56.7 61.4L60.6 61.4C60.6 62.4 60.9 63.1 61.5 63.7C62.1 64.3 62.8 64.6 63.7 64.6C64.5 64.6 65.2 64.4 65.6 63.9C66 63.4 66.2 62.8 66.2 62C66.2 61.8 66.2 61.6 66.2 61.4C66.2 61.2 66.1 61 66 60.9C65.9 60.7 65.8 60.6 65.7 60.5C65.6 60.4 65.4 60.3 65.2 60.1C65 60 64.8 59.9 64.7 59.8C64.6 59.7 64.4 59.6 64 59.5C63.7 59.4 63.5 59.3 63.3 59.3C63.2 59.3 62.9 59.2 62.5 59.1C62.1 59 61.9 58.9 61.7 58.9C60.3 58.4 59.2 57.7 58.3 56.9C57.5 56 57.1 54.7 57.1 53C57.1 51.3 57.7 50 58.8 48.9C59.9 47.9 61.5 47.4 63.5 47.4C67.5 47.1 69.6 49.1 69.8 53.2Z" />
		<path id="Layer" class="shp0" d="M74.2 67.6L74.2 51.1L71.8 51.1L71.8 47.4L74.2 47.4L74.2 42.6L78.1 42.6L78.1 47.4L80.5 47.4L80.5 51.1L78.1 51.1L78.1 67.6L74.2 67.6L74.2 67.6Z" />
		<path id="Layer" fill-rule="evenodd" class="shp0" d="M96.9 58.9L86.1 58.9C86.1 60.5 86.4 61.8 87 62.8C87.6 63.9 88.5 64.4 89.7 64.4C90.5 64.4 91.2 64.1 91.8 63.6C92.4 63.1 92.7 62.3 92.9 61.3L96.8 61.3C96.4 63.7 95.5 65.4 94.1 66.6C92.9 67.5 91.4 68 89.7 68C87.2 68 85.2 67 83.9 65C82.6 63 81.9 60.5 81.9 57.5C81.9 54.4 82.6 51.9 83.9 49.9C85.2 47.9 87.1 47 89.6 47C92.1 47 94 48 95.3 50.1C96.5 52.1 97 55 96.9 58.9ZM86.1 55.6L93.1 55.6C93.1 54.2 92.8 53 92.2 51.9C91.7 50.8 90.8 50.3 89.6 50.3C88.5 50.3 87.7 50.8 87 51.7C86.4 52.7 86.1 53.9 86.1 55.6Z" />
		<path id="Layer" class="shp0" d="M100.6 67.6L100.6 47.5L104.3 47.5C104.3 48.7 104.3 49.6 104.3 50.2C105 48.1 106.5 47.1 108.8 47.1C110.1 47.1 111.1 47.5 111.9 48.2C112.4 48.6 112.7 49.2 112.9 49.9C113.2 49.2 113.7 48.6 114.3 48.1C115.3 47.5 116.4 47.1 117.8 47.1C119.8 47.1 121.3 47.8 122.4 49.3C123.2 50.4 123.7 52 123.7 54.1L123.7 67.7L119.8 67.7L119.8 54.7C119.8 53.5 119.6 52.7 119.3 52.2C118.9 51.5 118.2 51.1 117.1 51.1C116.1 51.1 115.3 51.4 114.8 52C114.3 52.6 114 53.5 114 54.7L114 67.8L110.1 67.8L110.1 54.8C110.1 53.7 109.9 52.8 109.6 52.2C109.2 51.5 108.5 51.1 107.5 51.1C106.5 51.1 105.7 51.4 105.2 51.9C104.7 52.5 104.4 53.4 104.4 54.6L104.4 67.7L100.6 67.6L100.6 67.6Z" />
		<path id="Layer" fill-rule="evenodd" class="shp0" d="M141.6 67.6L138 67.6C138 66.4 138 65.5 138 65C137.1 67 135.6 68.1 133.6 68.1C131.7 68.1 130.1 67.2 128.9 65.4C127.7 63.6 127.1 61 127.1 57.7C127.1 54.4 127.7 51.8 128.8 50C129.9 48.2 131.5 47.2 133.6 47.2C135.8 47.2 137.3 48.3 138 50.4C138 49.8 138 48.9 138 47.7L141.6 47.5L141.6 67.6ZM131 57.6C131 62 132.1 64.2 134.4 64.2C135.4 64.2 136.2 63.7 136.9 62.8C137.2 62.3 137.5 61.7 137.6 61C137.7 60.3 137.8 59.1 137.8 57.6C137.8 56 137.8 54.9 137.6 54.1C137.5 53.4 137.3 52.8 136.9 52.3C136.3 51.4 135.4 50.9 134.4 50.9C132.1 51 131 53.2 131 57.6Z" />
		<path id="Layer" fill-rule="evenodd" class="shp0" d="M169 41L169 67.6L165.4 67.6C165.4 66.2 165.4 65.3 165.4 64.7C165.1 65.7 164.6 66.6 163.8 67.2C163 67.8 162 68.1 161 68.1C159.1 68.1 157.5 67.2 156.3 65.4C155.1 63.6 154.5 61 154.5 57.7C154.5 54.4 155.1 51.8 156.2 50C157.3 48.2 158.9 47.2 161 47.2C162.9 47.2 164.3 48.2 165.1 50.1C165.1 49.6 165.1 48.7 165.1 47.6L165.1 41C165.1 41 169 41 169 41ZM158.4 57.6C158.4 62 159.5 64.2 161.8 64.2C162.8 64.2 163.6 63.7 164.3 62.8C164.6 62.3 164.9 61.7 165 61C165.1 60.3 165.2 59.1 165.2 57.5C165.2 55.9 165.2 54.8 165 54.1C164.9 53.4 164.7 52.8 164.3 52.3C163.7 51.4 162.8 50.9 161.8 50.9C159.5 50.9 158.4 53.1 158.4 57.6Z" />
		<path id="Layer" fill-rule="evenodd" class="shp0" d="M187.5 58.9L176.7 58.9C176.7 60.5 177 61.8 177.6 62.8C178.2 63.9 179.1 64.4 180.3 64.4C181.1 64.4 181.8 64.1 182.4 63.6C183 63.1 183.3 62.3 183.5 61.3L187.4 61.3C187 63.7 186.1 65.4 184.7 66.6C183.5 67.5 182 68 180.3 68C177.8 68 175.8 67 174.5 65C173.2 63 172.5 60.5 172.5 57.5C172.5 54.4 173.2 51.9 174.5 49.9C175.8 47.9 177.7 47 180.2 47C182.7 47 184.6 48 185.9 50.1C187.1 52.1 187.6 55 187.5 58.9ZM176.7 55.6L183.7 55.6C183.7 54.2 183.4 53 182.8 51.9C182.3 50.8 181.4 50.3 180.2 50.3C179.1 50.3 178.3 50.8 177.6 51.7C177 52.7 176.7 53.9 176.7 55.6Z" />
		<path id="Layer" fill-rule="evenodd" class="shp0" d="M202.4 61.5L200.7 67.7L196.2 67.7L203.6 41.1L207.7 41.1L215.3 67.7L211 67.7L209.3 61.5L202.4 61.5ZM208.1 57.4L205.8 47.1L203.5 57.4L208.1 57.4Z" />
		<path id="Layer" class="shp0" d="M226.8 60.3L230.8 60.3C230.7 62.5 230.1 64.4 229 65.8C227.9 67.3 226.3 68 224.3 68C221.8 68 219.9 67.1 218.6 65.2C217.2 63.3 216.6 60.8 216.6 57.6C216.6 54.3 217.3 51.7 218.7 49.9C220.1 48 222 47.1 224.3 47.1C226.3 47.1 227.9 47.9 229.1 49.3C230.3 50.7 230.8 52.7 230.9 54.9L226.9 54.9C226.8 52.1 225.8 50.7 224.1 50.7C223 50.7 222.2 51.2 221.6 52.3C221 53.5 220.7 55.2 220.7 57.6C220.7 62.2 221.8 64.4 224.1 64.4C225.6 64.4 226.6 63 226.8 60.3Z" />
		<path id="Layer" class="shp0" d="M234.3 67.6L234.3 51.1L231.9 51.1L231.9 47.4L234.3 47.4L234.3 42.6L238.2 42.6L238.2 47.4L240.6 47.4L240.6 51.1L238.2 51.1L238.2 67.6L234.3 67.6L234.3 67.6Z" />
		<path id="Layer" fill-rule="evenodd" class="shp0" d="M241.8 57.6C241.8 54.5 242.5 52 243.8 50C245.1 48 247 47 249.6 47C252.1 47 254 48 255.4 50C256.8 52 257.4 54.5 257.4 57.6C257.4 60.6 256.7 63.2 255.4 65.1C254.1 67.1 252.2 68.1 249.6 68.1C247.1 68.1 245.1 67.1 243.8 65.1C242.5 63.1 241.8 60.6 241.8 57.6ZM245.9 57.6C245.9 60 246.2 61.8 246.8 62.8C247.4 63.9 248.3 64.4 249.6 64.4C252 64.4 253.2 62.1 253.2 57.6C253.2 55.2 252.9 53.4 252.3 52.4C251.7 51.3 250.8 50.8 249.5 50.8C247.1 50.7 245.9 53 245.9 57.6Z" />
		<path id="Layer" class="shp0" d="M260.7 67.6L260.7 47.5L264.3 47.5C264.3 49 264.3 50.1 264.3 50.7C264.7 49.3 265.3 48.3 266.2 47.8C267.1 47.3 268.2 47 269.5 47L269.5 51.7C269 51.4 268.5 51.2 267.8 51.2C266.9 51.2 266.1 51.6 265.5 52.5C264.9 53.4 264.6 54.6 264.6 56.1L264.6 67.5L260.7 67.5L260.7 67.6Z" />
		<path id="Layer" fill-rule="evenodd" class="shp0" d="M285.6 58.9L274.8 58.9C274.8 60.5 275.1 61.8 275.7 62.8C276.3 63.9 277.2 64.4 278.4 64.4C279.2 64.4 279.9 64.1 280.5 63.6C281.1 63.1 281.4 62.3 281.6 61.3L285.4 61.3C285 63.7 284.1 65.4 282.7 66.6C281.5 67.5 280 68 278.3 68C275.8 68 273.8 67 272.5 65C271.2 63 270.5 60.5 270.5 57.5C270.5 54.4 271.2 51.9 272.5 49.9C273.8 47.9 275.7 47 278.2 47C280.7 47 282.6 48 283.9 50.1C285.2 52.1 285.7 55 285.6 58.9ZM274.8 55.6L281.8 55.6C281.8 54.2 281.5 53 281 51.9C280.5 50.8 279.6 50.3 278.4 50.3C277.3 50.3 276.5 50.8 275.8 51.7C275.1 52.7 274.8 53.9 274.8 55.6Z" />
		<path id="Layer" class="shp0" d="M300.8 53.2L296.9 53.2C296.9 51.4 296 50.5 294.3 50.5C293.6 50.5 293.1 50.7 292.7 51.1C292.3 51.5 292.1 52 292.1 52.6C292.1 52.9 292.1 53.1 292.2 53.3C292.3 53.5 292.4 53.7 292.6 53.9C292.8 54.1 293 54.2 293.1 54.3C293.2 54.4 293.5 54.5 293.8 54.7C294.1 54.9 294.4 54.9 294.6 55C294.8 55.1 295.1 55.2 295.6 55.3C296.1 55.4 296.4 55.5 296.6 55.6C298 56.1 299.1 56.7 300 57.6C300.8 58.5 301.3 59.9 301.3 61.7C301.3 63.5 300.7 65.1 299.4 66.3C298.1 67.5 296.5 68.1 294.6 68.1C292.6 68.1 291 67.5 289.8 66.4C288.6 65.3 287.8 63.6 287.7 61.4L291.6 61.4C291.6 62.4 291.9 63.1 292.5 63.7C293.1 64.3 293.8 64.6 294.7 64.6C295.5 64.6 296.2 64.4 296.6 63.9C297 63.4 297.2 62.8 297.2 62C297.2 61.8 297.2 61.6 297.2 61.4C297.2 61.2 297.1 61 297 60.9C296.9 60.7 296.8 60.6 296.7 60.5C296.6 60.4 296.4 60.3 296.2 60.1C296 59.9 295.8 59.9 295.7 59.8C295.6 59.7 295.4 59.6 295 59.5C294.7 59.4 294.5 59.3 294.3 59.3C294.1 59.3 293.9 59.2 293.5 59.1C293.1 59 292.8 58.9 292.7 58.9C291.3 58.4 290.2 57.7 289.3 56.9C288.5 56 288.1 54.7 288.1 53C288.1 51.3 288.7 50 289.8 48.9C290.9 47.8 292.5 47.4 294.5 47.4C298.5 47.1 300.6 49.1 300.8 53.2Z" />
		<path id="Layer" class="shp0" d="M30 115.6L30 89L36.2 89C39.6 89 42 89.7 43.3 91.1C44.9 92.7 45.7 94.8 45.7 97.4C45.7 99.1 45.4 100.6 44.8 101.7C43.9 103.4 42.7 104.5 41.1 105.1L46.2 115.8L41.3 115.8L35.4 102.7C35.9 102.7 36.3 102.7 36.6 102.7C38 102.7 39.1 102.3 39.9 101.6C40.8 100.7 41.2 99.5 41.2 98C41.2 96.2 40.7 95 39.7 94.2C39 93.7 37.8 93.4 36.2 93.4L34.5 93.4L34.5 116L30 116L30 115.6Z" />
		<path id="Layer" fill-rule="evenodd" class="shp0" d="M63.3 106.9L52.5 106.9C52.5 108.5 52.8 109.8 53.4 110.8C54 111.9 54.9 112.4 56.1 112.4C56.9 112.4 57.6 112.1 58.2 111.6C58.8 111.1 59.1 110.3 59.3 109.3L63.2 109.3C62.8 111.6 61.9 113.4 60.5 114.6C59.3 115.5 57.8 116 56.1 116C53.6 116 51.6 115 50.3 113C49 111 48.3 108.5 48.3 105.5C48.3 102.4 49 99.9 50.3 97.9C51.6 95.9 53.5 95 56 95C58.5 95 60.4 96 61.7 98.1C62.8 100.1 63.4 103 63.3 106.9ZM52.4 103.6L59.4 103.6C59.4 102.2 59.1 101 58.5 99.9C58 98.8 57.1 98.3 55.9 98.3C54.8 98.3 54 98.8 53.3 99.7C52.8 100.7 52.4 101.9 52.4 103.6Z" />
		<path id="Layer" class="shp0" d="M67.2 115.6L67.2 89L71.1 89L71.1 115.6L67.2 115.6Z" />
		<path id="Layer" fill-rule="evenodd" class="shp0" d="M90.1 106.9L79.3 106.9C79.3 108.5 79.6 109.8 80.2 110.8C80.8 111.9 81.7 112.4 82.9 112.4C83.7 112.4 84.4 112.1 85 111.6C85.6 111.1 85.9 110.3 86.1 109.3L90 109.3C89.6 111.6 88.7 113.4 87.3 114.6C86.1 115.5 84.6 116 82.9 116C80.4 116 78.4 115 77.1 113C75.8 111 75.1 108.5 75.1 105.5C75.1 102.4 75.8 99.9 77.1 97.9C78.4 95.9 80.3 95 82.8 95C85.3 95 87.2 96 88.5 98.1C89.6 100.1 90.2 103 90.1 106.9ZM79.2 103.6L86.2 103.6C86.2 102.2 85.9 101 85.3 99.9C84.8 98.8 83.9 98.3 82.7 98.3C81.6 98.3 80.8 98.8 80.1 99.7C79.6 100.7 79.2 101.9 79.2 103.6Z" />
		<path id="Layer" class="shp0" d="M106.1 95.5L100.6 115.6L97 115.6L91.1 95.5L95.1 95.5L98.8 109.9L102.2 95.5L106.1 95.5Z" />
		<path id="Layer" fill-rule="evenodd" class="shp0" d="M121.6 115.6L118 115.6C118 114.4 118 113.5 118 113C117.1 115 115.6 116.1 113.6 116.1C111.7 116.1 110.1 115.2 108.9 113.4C107.7 111.6 107.1 109 107.1 105.7C107.1 102.4 107.7 99.8 108.8 98C109.9 96.2 111.5 95.2 113.6 95.2C115.8 95.2 117.3 96.3 118 98.4C118 97.8 118 96.9 118 95.7L121.6 95.5L121.6 115.6ZM111 105.6C111 110 112.1 112.2 114.4 112.2C115.4 112.2 116.2 111.7 116.9 110.8C117.2 110.3 117.5 109.7 117.6 109C117.7 108.3 117.8 107.1 117.8 105.6C117.8 104 117.8 102.9 117.6 102.1C117.5 101.4 117.3 100.8 116.9 100.3C116.3 99.4 115.4 98.9 114.4 98.9C112.1 99 111 101.2 111 105.6Z" />
		<path id="Layer" class="shp0" d="M126 115.6L126 95.5L129.4 95.5C129.4 96.6 129.4 97.4 129.4 98C130.3 96.1 131.9 95.1 134.2 95.1C137.8 95.1 139.6 97.2 139.6 101.3L139.6 115.6L135.7 115.6L135.7 102.5C135.7 100.1 134.8 98.9 133 98.9C132 98.9 131.2 99.2 130.7 99.8C130.2 100.4 129.9 101.4 129.9 102.6L129.9 115.5L126 115.5L126 115.6Z" />
		<path id="Layer" class="shp0" d="M144.6 115.6L144.6 99.1L142.2 99.1L142.2 95.4L144.6 95.4L144.6 90.6L148.5 90.6L148.5 95.4L150.9 95.4L150.9 99.1L148.5 99.1L148.5 115.6L144.6 115.6L144.6 115.6Z" />
		<path id="Layer" fill-rule="evenodd" class="shp0" d="M167.3 106.9L156.5 106.9C156.5 108.5 156.8 109.8 157.4 110.8C158 111.9 158.9 112.4 160.1 112.4C160.9 112.4 161.6 112.1 162.2 111.6C162.8 111.1 163.1 110.3 163.3 109.3L167.2 109.3C166.8 111.6 165.9 113.4 164.5 114.6C163.3 115.5 161.8 116 160.1 116C157.6 116 155.6 115 154.3 113C153 111 152.3 108.5 152.3 105.5C152.3 102.4 153 99.9 154.3 97.9C155.6 95.9 157.5 95 160 95C162.5 95 164.4 96 165.7 98.1C166.8 100.1 167.4 103 167.3 106.9ZM156.4 103.6L163.4 103.6C163.4 102.2 163.1 101 162.5 99.9C162 98.8 161.1 98.3 159.9 98.3C158.8 98.3 158 98.8 157.3 99.7C156.8 100.7 156.4 101.9 156.4 103.6Z" />
		<path id="Layer" class="shp0" d="M182.5 101.2L178.6 101.2C178.6 99.4 177.7 98.5 176 98.5C175.4 98.5 174.8 98.7 174.4 99.1C174 99.5 173.8 100 173.8 100.6C173.8 100.9 173.8 101.1 173.9 101.3C174 101.5 174.1 101.7 174.3 101.9C174.5 102.1 174.7 102.2 174.8 102.3C174.9 102.4 175.2 102.5 175.5 102.7C175.9 102.8 176.1 102.9 176.3 103C176.5 103.1 176.8 103.2 177.3 103.3C177.8 103.4 178.1 103.5 178.3 103.6C179.7 104.1 180.8 104.7 181.7 105.6C182.6 106.5 183 107.9 183 109.7C183 111.5 182.4 113.1 181.1 114.3C179.8 115.5 178.2 116.1 176.3 116.1C174.3 116.1 172.7 115.5 171.5 114.4C170.3 113.3 169.5 111.6 169.4 109.4L173.3 109.4C173.3 110.4 173.6 111.1 174.2 111.7C174.8 112.3 175.5 112.5 176.4 112.5C177.2 112.5 177.9 112.3 178.3 111.8C178.7 111.3 178.9 110.7 178.9 109.9C178.9 109.7 178.9 109.5 178.9 109.3C178.9 109.1 178.8 108.9 178.7 108.8C178.6 108.6 178.5 108.5 178.4 108.4C178.3 108.3 178.1 108.2 177.9 108C177.7 107.9 177.5 107.8 177.4 107.7C177.3 107.6 177.1 107.5 176.7 107.4C176.4 107.3 176.2 107.2 176 107.2C175.9 107.2 175.6 107.1 175.2 107C174.8 106.9 174.6 106.8 174.4 106.8C173 106.3 171.9 105.6 171 104.8C170.2 103.9 169.8 102.6 169.8 100.9C169.8 99.2 170.4 97.9 171.5 96.8C172.6 95.8 174.2 95.3 176.2 95.3C180.1 95.1 182.2 97.1 182.5 101.2Z" />
		<path id="Layer" fill-rule="evenodd" class="shp0" d="M209.2 89L209.2 115.6L205.6 115.6C205.6 114.2 205.6 113.3 205.6 112.7C205.3 113.7 204.8 114.6 204 115.2C203.2 115.8 202.2 116.1 201.2 116.1C199.3 116.1 197.7 115.2 196.5 113.4C195.3 111.6 194.7 109 194.7 105.7C194.7 102.4 195.3 99.8 196.4 98C197.5 96.2 199.1 95.2 201.2 95.2C203.1 95.2 204.5 96.2 205.3 98.1C205.3 97.6 205.3 96.7 205.3 95.6L205.3 89C205.3 89 209.2 89 209.2 89ZM198.6 105.6C198.6 110 199.7 112.2 202 112.2C203 112.2 203.8 111.7 204.5 110.8C204.8 110.3 205.1 109.7 205.2 109C205.3 108.3 205.4 107.1 205.4 105.5C205.4 103.9 205.4 102.8 205.2 102.1C205.1 101.4 204.9 100.8 204.5 100.3C203.9 99.4 203 98.9 202 98.9C199.7 98.9 198.6 101.1 198.6 105.6Z" />
		<path id="Layer" fill-rule="evenodd" class="shp0" d="M227.7 106.9L216.9 106.9C216.9 108.5 217.2 109.8 217.8 110.8C218.4 111.9 219.3 112.4 220.5 112.4C221.3 112.4 222 112.1 222.6 111.6C223.2 111.1 223.5 110.3 223.7 109.3L227.6 109.3C227.2 111.6 226.3 113.4 224.9 114.6C223.7 115.5 222.2 116 220.5 116C218 116 216 115 214.7 113C213.4 111 212.7 108.5 212.7 105.5C212.7 102.4 213.4 99.9 214.7 97.9C216 95.9 217.9 95 220.4 95C222.9 95 224.8 96 226.1 98.1C227.3 100.1 227.8 103 227.7 106.9ZM216.9 103.6L223.9 103.6C223.9 102.2 223.6 101 223 99.9C222.5 98.8 221.6 98.3 220.4 98.3C219.3 98.3 218.5 98.8 217.8 99.7C217.2 100.7 216.9 101.9 216.9 103.6Z" />
		<path id="Layer" class="shp0" d="M231.7 115.6L231.7 89L235.6 89L235.6 115.6L231.7 115.6Z" />
		<path id="Layer" class="shp0" d="M263.1 105.9L267.6 105.9C267.6 108.8 266.8 111.2 265.2 113.2C263.6 115.2 261.4 116.1 258.5 116.1C255.5 116.1 253.2 114.9 251.5 112.6C249.8 110.3 249 106.8 249 102.3C249 97.8 249.8 94.4 251.5 92C253.2 89.6 255.5 88.4 258.5 88.4C261.4 88.4 263.7 89.4 265.3 91.4C266.9 93.4 267.7 95.9 267.6 98.9L263.1 98.9C263 94.7 261.6 92.5 258.7 92.5C255.2 92.5 253.4 95.7 253.4 102.3C253.4 105.5 253.9 107.9 254.8 109.5C255.7 111.1 257 111.8 258.6 111.8C261.5 112 262.9 110 263.1 105.9Z" />
		<path id="Layer" fill-rule="evenodd" class="shp0" d="M270.2 102.3C270.2 98.1 271 94.7 272.7 92.2C274.4 89.7 276.8 88.5 279.9 88.5C283.1 88.5 285.5 89.7 287.1 92.2C288.8 94.7 289.6 98.1 289.6 102.3C289.6 106.4 288.8 109.7 287.1 112.3C285.5 114.9 283 116.1 279.8 116.1C276.7 116.1 274.3 114.9 272.6 112.4C271 109.9 270.2 106.5 270.2 102.3ZM274.7 102.3C274.7 108.8 276.4 112.1 279.9 112.1C283.4 112.1 285.2 108.9 285.2 102.3C285.2 95.8 283.4 92.5 279.9 92.5C276.4 92.6 274.7 95.8 274.7 102.3Z" />
		<path id="Layer" class="shp0" d="M298 89L306.3 107.2L306.3 89L310.2 89L310.2 115.6L306.1 115.6L297.2 96.3L297.2 115.6L293.3 115.6L293.3 89L298 89Z" />
		<path id="Layer" class="shp0" d="M315.2 115.6L315.2 89L328 89L328 93.1L319.6 93.1L319.6 99.8L328 99.8L328 103.8L319.6 103.8L319.6 111.5L328 111.5L328 115.6L315.2 115.6Z" />
		<path id="Layer" class="shp0" d="M338 115.6L330.5 89L334.8 89L340 109.1L345.2 89L349.4 89L341.9 115.6L338 115.6Z" />
		<path id="Layer" fill-rule="evenodd" class="shp0" d="M354.2 109.5L352.5 115.7L348 115.7L355.4 89.1L359.5 89.1L367.1 115.7L362.6 115.7L360.9 109.5L354.2 109.5ZM359.9 105.4L357.6 95.1L355.3 105.4L359.9 105.4Z" />
		<path id="Layer" class="shp0" d="M369.7 115.6L369.7 89L374.1 89L374.1 111.6L381.7 111.6L381.7 115.7L369.7 115.7L369.7 115.6Z" />
	</g>
	<path id="Layer" class="shp1" d="M8.7 20.3L15.5 20.3L15.5 136.2L8.7 136.2L8.7 20.3Z" />
</svg>